<svg width="15" height="15" viewBox="0 0 15 15" fill="none" xmlns="http://www.w3.org/2000/svg">
<path d="M4.59343 6.91675C4.43718 7.073 4.43718 7.29175 4.59343 7.448L8.43718 11.2917C8.59343 11.4167 8.81218 11.4167 8.96843 11.2917L9.65593 10.573C9.81218 10.4167 9.81218 10.198 9.65593 10.0417L6.81218 7.16675L9.65593 4.323C9.81218 4.16675 9.81218 3.91675 9.65593 3.79175L8.96843 3.073C8.81218 2.91675 8.59343 2.91675 8.43718 3.073L4.59343 6.91675ZM14.4997 1.66675C14.4997 0.854248 13.8122 0.166748 12.9997 0.166748H1.99968C1.15593 0.166748 0.499675 0.854248 0.499675 1.66675V12.6667C0.499675 13.5105 1.15593 14.1667 1.99968 14.1667H12.9997C13.8122 14.1667 14.4997 13.5105 14.4997 12.6667V1.66675ZM12.9997 12.4792C12.9997 12.6042 12.9059 12.6667 12.8122 12.6667H2.18718C2.06218 12.6667 1.99968 12.6042 1.99968 12.4792V1.85425C1.99968 1.7605 2.06218 1.66675 2.18718 1.66675H12.8122C12.9059 1.66675 12.9997 1.7605 12.9997 1.85425V12.4792Z" fill="#323232"/>
</svg>
