<svg width="14" height="14" viewBox="0 0 14 14" fill="none" xmlns="http://www.w3.org/2000/svg">
<path d="M9.90625 6.75C10.0625 6.90625 10.0625 7.125 9.90625 7.28125L6.0625 11.125C5.90625 11.25 5.6875 11.25 5.53125 11.125L4.84375 10.4062C4.6875 10.25 4.6875 10.0312 4.84375 9.875L7.6875 7L4.84375 4.15625C4.6875 4 4.6875 3.75 4.84375 3.625L5.53125 2.90625C5.6875 2.75 5.90625 2.75 6.0625 2.90625L9.90625 6.75ZM0 1.5C0 0.6875 0.6875 0 1.5 0H12.5C13.3438 0 14 0.6875 14 1.5V12.5C14 13.3438 13.3438 14 12.5 14H1.5C0.6875 14 0 13.3438 0 12.5V1.5ZM1.5 12.3125C1.5 12.4375 1.59375 12.5 1.6875 12.5H12.3125C12.4375 12.5 12.5 12.4375 12.5 12.3125V1.6875C12.5 1.59375 12.4375 1.5 12.3125 1.5H1.6875C1.59375 1.5 1.5 1.59375 1.5 1.6875V12.3125Z" fill="#323232"/>
</svg>
