<svg width="18" height="16" viewBox="0 0 18 16" fill="none" xmlns="http://www.w3.org/2000/svg">
<path d="M12.5789 10.7736C12.5163 10.8362 12.5163 10.8988 12.5163 10.9614V14.4978H1.50196V3.48166H9.04303C9.10561 3.48166 9.16819 3.48166 9.23077 3.41907L10.2321 2.4176C10.3885 2.26112 10.2634 1.97946 10.0443 1.97946H1.50196C0.657106 1.97946 0 2.66797 0 3.48166V14.4978C0 15.3428 0.657106 16 1.50196 16H12.5163C13.3299 16 14.0183 15.3428 14.0183 14.4978V9.9599C14.0183 9.74083 13.7366 9.61565 13.5802 9.77213L12.5789 10.7736ZM17.4602 4.48313C18.1799 3.76333 18.1799 2.60538 17.4602 1.88557L16.1147 0.539853C15.395 -0.179951 14.2373 -0.179951 13.5176 0.539853L5.31943 8.73936L5.00652 11.5873C4.91265 12.401 5.60104 13.0895 6.4146 12.9956L9.26206 12.6826L17.4602 4.48313ZM14.3937 5.422L8.57366 11.243L6.50847 11.4934L6.7588 9.42787L12.5789 3.60685L14.3937 5.422ZM16.3963 2.94963C16.5528 3.07482 16.5528 3.26259 16.4276 3.41907L15.4576 4.38924L13.6428 2.54279L14.5815 1.60391C14.7066 1.44743 14.9257 1.44743 15.0508 1.60391L16.3963 2.94963Z" fill="white"/>
</svg>
