<svg width="17" height="16" viewBox="0 0 17 16" fill="none" xmlns="http://www.w3.org/2000/svg">
<path d="M8.50032 0.416748C4.21907 0.416748 0.750324 3.91675 0.750324 8.16675C0.750324 12.448 4.21907 15.9167 8.50032 15.9167C12.7503 15.9167 16.2503 12.448 16.2503 8.16675C16.2503 3.91675 12.7503 0.416748 8.50032 0.416748ZM8.50032 14.4167C5.03157 14.4167 2.25032 11.6355 2.25032 8.16675C2.25032 4.72925 5.03157 1.91675 8.50032 1.91675C11.9378 1.91675 14.7503 4.72925 14.7503 8.16675C14.7503 11.6355 11.9378 14.4167 8.50032 14.4167ZM9.81282 11.1667C9.81282 10.448 9.21907 9.85425 8.50032 9.85425C7.75032 9.85425 7.18782 10.448 7.18782 11.1667C7.18782 11.9167 7.75032 12.4792 8.50032 12.4792C9.21907 12.4792 9.81282 11.9167 9.81282 11.1667ZM7.25032 4.573L7.46907 8.823C7.46907 9.0105 7.65657 9.16675 7.84407 9.16675H9.12532C9.31282 9.16675 9.50032 9.0105 9.50032 8.823L9.71907 4.573C9.71907 4.35425 9.56282 4.16675 9.34407 4.16675H7.62532C7.40657 4.16675 7.25032 4.35425 7.25032 4.573Z" fill="#323232"/>
</svg>
