<svg width="110" height="28" viewBox="0 0 110 28" fill="none" xmlns="http://www.w3.org/2000/svg">
<path d="M39.7952 19.7739C42.3574 19.7739 44.1452 18.3046 44.3913 15.9739H42.2633C42.0317 17.2116 41.098 17.9716 39.8024 17.9716C38.1304 17.9716 37.0809 16.5964 37.0809 14.3671C37.0809 12.1667 38.1449 10.7842 39.7952 10.7842C41.069 10.7842 42.0534 11.6239 42.2561 12.905H44.3841C44.2176 10.5671 42.3068 8.97473 39.7952 8.97473C36.7696 8.97473 34.8516 11.0086 34.8516 14.3743C34.8516 17.7472 36.7552 19.7739 39.7952 19.7739Z" fill="black"/>
<path d="M53.7052 19.6002H56.0287L52.3951 9.15568H49.8256L46.1994 19.6002H48.4432L49.2394 17.0669H52.9091L53.7052 19.6002ZM51.0489 11.1534H51.0995L52.4386 15.4311H49.7098L51.0489 11.1534Z" fill="black"/>
<path d="M65.3353 17.7907H60.7681V9.15568H58.5822V19.6002H65.3353V17.7907Z" fill="black"/>
<path d="M74.8664 17.7907H70.2992V9.15568H68.1133V19.6002H74.8664V17.7907Z" fill="black"/>
<path d="M84.4843 19.6002H86.8077L83.1742 9.15568H80.6047L76.9785 19.6002H79.2223L80.0184 17.0669H83.6881L84.4843 19.6002ZM81.828 11.1534H81.8786L83.2177 15.4311H80.4889L81.828 11.1534Z" fill="black"/>
<path d="M93.9864 19.6002C96.2158 19.6002 97.5982 18.4493 97.5982 16.6109C97.5982 15.2284 96.5559 14.1934 95.1373 14.0848V14.0269C96.2447 13.8604 97.0988 12.905 97.0988 11.7614C97.0988 10.1618 95.8683 9.15568 93.9068 9.15568H89.3613V19.6002H93.9864ZM91.5472 10.7842H93.3423C94.3628 10.7842 94.9491 11.262 94.9491 12.1016C94.9491 12.9846 94.2832 13.4985 93.1179 13.4985H91.5472V10.7842ZM91.5472 17.9716V14.9389H93.3784C94.6668 14.9389 95.3689 15.46 95.3689 16.4372C95.3689 17.436 94.6885 17.9716 93.4291 17.9716H91.5472Z" fill="black"/>
<path d="M107.165 19.6002H109.489L105.855 9.15568H103.286L99.6596 19.6002H101.903L102.7 17.0669H106.369L107.165 19.6002ZM104.509 11.1534H104.56L105.899 15.4311H103.17L104.509 11.1534Z" fill="black"/>
<path d="M24.8018 7.59998C24.8018 8.70454 23.9063 9.59998 22.8018 9.59998C21.6972 9.59998 20.8018 8.70454 20.8018 7.59998C20.8018 6.49541 21.6972 5.59998 22.8018 5.59998C23.9063 5.59998 24.8018 6.49541 24.8018 7.59998Z" fill="black"/>
<path fill-rule="evenodd" clip-rule="evenodd" d="M22.8018 8.47998C23.2878 8.47998 23.6818 8.08599 23.6818 7.59998C23.6818 7.11396 23.2878 6.71998 22.8018 6.71998C22.3157 6.71998 21.9218 7.11396 21.9218 7.59998C21.9218 8.08599 22.3157 8.47998 22.8018 8.47998ZM22.8018 9.59998C23.9063 9.59998 24.8018 8.70454 24.8018 7.59998C24.8018 6.49541 23.9063 5.59998 22.8018 5.59998C21.6972 5.59998 20.8018 6.49541 20.8018 7.59998C20.8018 8.70454 21.6972 9.59998 22.8018 9.59998Z" fill="black"/>
<path d="M24.8018 20.4C24.8018 21.5046 23.9063 22.4 22.8018 22.4C21.6972 22.4 20.8018 21.5046 20.8018 20.4C20.8018 19.2955 21.6972 18.4 22.8018 18.4C23.9063 18.4 24.8018 19.2955 24.8018 20.4Z" fill="black"/>
<path fill-rule="evenodd" clip-rule="evenodd" d="M22.8018 21.28C23.2878 21.28 23.6818 20.886 23.6818 20.4C23.6818 19.914 23.2878 19.52 22.8018 19.52C22.3157 19.52 21.9218 19.914 21.9218 20.4C21.9218 20.886 22.3157 21.28 22.8018 21.28ZM22.8018 22.4C23.9063 22.4 24.8018 21.5046 24.8018 20.4C24.8018 19.2955 23.9063 18.4 22.8018 18.4C21.6972 18.4 20.8018 19.2955 20.8018 20.4C20.8018 21.5046 21.6972 22.4 22.8018 22.4Z" fill="black"/>
<path d="M14.4004 2C14.4004 3.10457 13.505 4 12.4004 4C11.2958 4 10.4004 3.10457 10.4004 2C10.4004 0.89543 11.2958 0 12.4004 0C13.505 0 14.4004 0.89543 14.4004 2Z" fill="black"/>
<path fill-rule="evenodd" clip-rule="evenodd" d="M12.4004 2.88C12.8864 2.88 13.2804 2.48601 13.2804 2C13.2804 1.51399 12.8864 1.12 12.4004 1.12C11.9144 1.12 11.5204 1.51399 11.5204 2C11.5204 2.48601 11.9144 2.88 12.4004 2.88ZM12.4004 4C13.505 4 14.4004 3.10457 14.4004 2C14.4004 0.89543 13.505 0 12.4004 0C11.2958 0 10.4004 0.89543 10.4004 2C10.4004 3.10457 11.2958 4 12.4004 4Z" fill="black"/>
<path fill-rule="evenodd" clip-rule="evenodd" d="M12.3998 2.25201L2.22113 8.31826V20.4819L12.3998 26.5482L22.5786 20.4819V8.31826L12.3998 2.25201ZM23.1386 8.0001L12.3998 1.6001L1.66113 8.0001V20.8001L12.3998 27.2001L23.1386 20.8001V8.0001Z" fill="black"/>
<path d="M4 20.4C4 21.5046 3.10457 22.4 2 22.4C0.89543 22.4 0 21.5046 0 20.4C0 19.2955 0.89543 18.4 2 18.4C3.10457 18.4 4 19.2955 4 20.4Z" fill="black"/>
<path fill-rule="evenodd" clip-rule="evenodd" d="M2 21.28C2.48601 21.28 2.88 20.886 2.88 20.4C2.88 19.914 2.48601 19.52 2 19.52C1.51399 19.52 1.12 19.914 1.12 20.4C1.12 20.886 1.51399 21.28 2 21.28ZM2 22.4C3.10457 22.4 4 21.5046 4 20.4C4 19.2955 3.10457 18.4 2 18.4C0.89543 18.4 0 19.2955 0 20.4C0 21.5046 0.89543 22.4 2 22.4Z" fill="black"/>
<path d="M2 5.59998C3.10457 5.59998 4 6.49541 4 7.59998C4 8.70454 3.10457 9.59998 2 9.59998C0.89543 9.59998 -3.91405e-08 8.70455 -8.74228e-08 7.59998C-1.35705e-07 6.49541 0.89543 5.59998 2 5.59998Z" fill="black"/>
<path fill-rule="evenodd" clip-rule="evenodd" d="M2.88 7.59998C2.88 7.11397 2.48601 6.71998 2 6.71998C1.51399 6.71998 1.12 7.11397 1.12 7.59998C1.12 8.08599 1.51399 8.47998 2 8.47998C2.48601 8.47998 2.88 8.08599 2.88 7.59998ZM4 7.59998C4 6.49541 3.10457 5.59998 2 5.59998C0.89543 5.59998 -1.35705e-07 6.49541 -8.74228e-08 7.59998C-3.91405e-08 8.70455 0.89543 9.59998 2 9.59998C3.10457 9.59998 4 8.70454 4 7.59998Z" fill="black"/>
<path d="M12.4004 24C13.505 24 14.4004 24.8954 14.4004 26C14.4004 27.1046 13.505 28 12.4004 28C11.2958 28 10.4004 27.1046 10.4004 26C10.4004 24.8954 11.2958 24 12.4004 24Z" fill="black"/>
<path fill-rule="evenodd" clip-rule="evenodd" d="M13.2804 26C13.2804 25.514 12.8864 25.12 12.4004 25.12C11.9144 25.12 11.5204 25.514 11.5204 26C11.5204 26.486 11.9144 26.88 12.4004 26.88C12.8864 26.88 13.2804 26.486 13.2804 26ZM14.4004 26C14.4004 24.8954 13.505 24 12.4004 24C11.2958 24 10.4004 24.8954 10.4004 26C10.4004 27.1046 11.2958 28 12.4004 28C13.505 28 14.4004 27.1046 14.4004 26Z" fill="black"/>
<path fill-rule="evenodd" clip-rule="evenodd" d="M22.7994 8.28034H2.39941V7.72034H22.7994V8.28034Z" fill="black"/>
<path fill-rule="evenodd" clip-rule="evenodd" d="M12.8803 2.79976L12.8803 24.7598L12.3203 24.7598L12.3203 2.79976L12.8803 2.79976Z" fill="black"/>
<path fill-rule="evenodd" clip-rule="evenodd" d="M22.7994 20.2798H2.39941V19.7198H22.7994V20.2798Z" fill="black"/>
<path fill-rule="evenodd" clip-rule="evenodd" d="M22.9469 7.83856L2.14677 20.6386L1.85328 20.1617L22.6534 7.36163L22.9469 7.83856Z" fill="black"/>
<path fill-rule="evenodd" clip-rule="evenodd" d="M1.79061 7.94675L23.2758 19.5602L23.0095 20.0528L1.52432 8.43939L1.79061 7.94675Z" fill="black"/>
</svg>
