<svg width="25" height="29" viewBox="0 0 25 29" fill="none" xmlns="http://www.w3.org/2000/svg">
<path d="M25 7.66112C25 8.77458 24.0973 9.67721 22.9839 9.67721C21.8704 9.67721 20.9678 8.77458 20.9678 7.66112C20.9678 6.54766 21.8704 5.64502 22.9839 5.64502C24.0973 5.64502 25 6.54766 25 7.66112Z" fill="black"/>
<path fill-rule="evenodd" clip-rule="evenodd" d="M22.9839 8.5482C23.4738 8.5482 23.871 8.15104 23.871 7.66112C23.871 7.17119 23.4738 6.77403 22.9839 6.77403C22.4939 6.77403 22.0968 7.17119 22.0968 7.66112C22.0968 8.15104 22.4939 8.5482 22.9839 8.5482ZM22.9839 9.67721C24.0973 9.67721 25 8.77458 25 7.66112C25 6.54766 24.0973 5.64502 22.9839 5.64502C21.8704 5.64502 20.9678 6.54766 20.9678 7.66112C20.9678 8.77458 21.8704 9.67721 22.9839 9.67721Z" fill="black"/>
<path d="M25 20.5643C25 21.6778 24.0973 22.5804 22.9839 22.5804C21.8704 22.5804 20.9678 21.6778 20.9678 20.5643C20.9678 19.4509 21.8704 18.5482 22.9839 18.5482C24.0973 18.5482 25 19.4509 25 20.5643Z" fill="black"/>
<path fill-rule="evenodd" clip-rule="evenodd" d="M22.9839 21.4514C23.4738 21.4514 23.871 21.0542 23.871 20.5643C23.871 20.0744 23.4738 19.6772 22.9839 19.6772C22.4939 19.6772 22.0968 20.0744 22.0968 20.5643C22.0968 21.0542 22.4939 21.4514 22.9839 21.4514ZM22.9839 22.5804C24.0973 22.5804 25 21.6778 25 20.5643C25 19.4509 24.0973 18.5482 22.9839 18.5482C21.8704 18.5482 20.9678 19.4509 20.9678 20.5643C20.9678 21.6778 21.8704 22.5804 22.9839 22.5804Z" fill="black"/>
<path d="M14.5156 2.0161C14.5156 3.12956 13.613 4.03219 12.4995 4.03219C11.386 4.03219 10.4834 3.12956 10.4834 2.0161C10.4834 0.902638 11.386 0 12.4995 0C13.613 0 14.5156 0.902638 14.5156 2.0161Z" fill="black"/>
<path fill-rule="evenodd" clip-rule="evenodd" d="M12.4995 2.90318C12.9894 2.90318 13.3866 2.50602 13.3866 2.0161C13.3866 1.52618 12.9894 1.12901 12.4995 1.12901C12.0096 1.12901 11.6124 1.52618 11.6124 2.0161C11.6124 2.50602 12.0096 2.90318 12.4995 2.90318ZM12.4995 4.03219C13.613 4.03219 14.5156 3.12956 14.5156 2.0161C14.5156 0.902638 13.613 0 12.4995 0C11.386 0 10.4834 0.902638 10.4834 2.0161C10.4834 3.12956 11.386 4.03219 12.4995 4.03219Z" fill="black"/>
<path fill-rule="evenodd" clip-rule="evenodd" d="M12.5 2.27019L2.23931 8.38527V20.6468L12.5 26.7619L22.7606 20.6468V8.38527L12.5 2.27019ZM23.3251 8.06455L12.5 1.61304L1.6748 8.06455V20.9676L12.5 27.4191L23.3251 20.9676V8.06455Z" fill="black"/>
<path d="M4.03219 20.5643C4.03219 21.6778 3.12956 22.5804 2.0161 22.5804C0.902638 22.5804 0 21.6778 0 20.5643C0 19.4509 0.902638 18.5482 2.0161 18.5482C3.12956 18.5482 4.03219 19.4509 4.03219 20.5643Z" fill="black"/>
<path fill-rule="evenodd" clip-rule="evenodd" d="M2.0161 21.4514C2.50602 21.4514 2.90318 21.0542 2.90318 20.5643C2.90318 20.0744 2.50602 19.6772 2.0161 19.6772C1.52618 19.6772 1.12901 20.0744 1.12901 20.5643C1.12901 21.0542 1.52618 21.4514 2.0161 21.4514ZM2.0161 22.5804C3.12956 22.5804 4.03219 21.6778 4.03219 20.5643C4.03219 19.4509 3.12956 18.5482 2.0161 18.5482C0.902638 18.5482 0 19.4509 0 20.5643C0 21.6778 0.902638 22.5804 2.0161 22.5804Z" fill="black"/>
<path d="M2.0161 5.64493C3.12956 5.64493 4.03219 6.54757 4.03219 7.66103C4.03219 8.77449 3.12956 9.67712 2.0161 9.67712C0.902638 9.67712 -3.94555e-08 8.77449 -8.81264e-08 7.66103C-1.36797e-07 6.54757 0.902637 5.64493 2.0161 5.64493Z" fill="black"/>
<path fill-rule="evenodd" clip-rule="evenodd" d="M2.90318 7.66103C2.90318 7.1711 2.50602 6.77394 2.0161 6.77394C1.52617 6.77394 1.12901 7.1711 1.12901 7.66103C1.12901 8.15095 1.52617 8.54811 2.0161 8.54811C2.50602 8.54811 2.90318 8.15095 2.90318 7.66103ZM4.03219 7.66103C4.03219 6.54757 3.12956 5.64493 2.0161 5.64493C0.902637 5.64493 -1.36797e-07 6.54757 -8.81264e-08 7.66103C-3.94555e-08 8.77449 0.902638 9.67712 2.0161 9.67712C3.12956 9.67712 4.03219 8.77449 4.03219 7.66103Z" fill="black"/>
<path d="M12.4995 24.1931C13.613 24.1931 14.5156 25.0958 14.5156 26.2092C14.5156 27.3227 13.613 28.2253 12.4995 28.2253C11.386 28.2253 10.4834 27.3227 10.4834 26.2092C10.4834 25.0958 11.386 24.1931 12.4995 24.1931Z" fill="black"/>
<path fill-rule="evenodd" clip-rule="evenodd" d="M13.3866 26.2092C13.3866 25.7193 12.9894 25.3222 12.4995 25.3222C12.0096 25.3222 11.6124 25.7193 11.6124 26.2092C11.6124 26.6992 12.0096 27.0963 12.4995 27.0963C12.9894 27.0963 13.3866 26.6992 13.3866 26.2092ZM14.5156 26.2092C14.5156 25.0958 13.613 24.1931 12.4995 24.1931C11.386 24.1931 10.4834 25.0958 10.4834 26.2092C10.4834 27.3227 11.386 28.2253 12.4995 28.2253C13.613 28.2253 14.5156 27.3227 14.5156 26.2092Z" fill="black"/>
<path fill-rule="evenodd" clip-rule="evenodd" d="M22.9831 8.34686H2.41895V7.78235H22.9831V8.34686Z" fill="black"/>
<path fill-rule="evenodd" clip-rule="evenodd" d="M12.9835 2.82236L12.9835 24.9591L12.4189 24.9591L12.4189 2.82236L12.9835 2.82236Z" fill="black"/>
<path fill-rule="evenodd" clip-rule="evenodd" d="M22.9831 20.443H2.41895V19.8785H22.9831V20.443Z" fill="black"/>
<path fill-rule="evenodd" clip-rule="evenodd" d="M23.1312 7.90162L2.16361 20.8047L1.86776 20.3239L22.8353 7.42086L23.1312 7.90162Z" fill="black"/>
<path fill-rule="evenodd" clip-rule="evenodd" d="M1.8052 8.0108L23.4633 19.7177L23.1949 20.2143L1.53677 8.5074L1.8052 8.0108Z" fill="black"/>
</svg>
