<svg width="16" height="17" viewBox="0 0 16 17" fill="none" xmlns="http://www.w3.org/2000/svg">
<path d="M4.25806 9.64615H11.7419C11.9355 9.64615 12.129 9.48485 12.129 9.25905V8.22679C12.129 8.03324 11.9355 7.83969 11.7419 7.83969H4.25806C4.03226 7.83969 3.87097 8.03324 3.87097 8.22679V9.25905C3.87097 9.48485 4.03226 9.64615 4.25806 9.64615ZM16 8.74292C16 4.32357 12.4194 0.74292 8 0.74292C3.58065 0.74292 0 4.32357 0 8.74292C0 13.1623 3.58065 16.7429 8 16.7429C12.4194 16.7429 16 13.1623 16 8.74292ZM14.4516 8.74292C14.4516 12.3236 11.5484 15.1945 8 15.1945C4.41935 15.1945 1.54839 12.3236 1.54839 8.74292C1.54839 5.19453 4.41935 2.29131 8 2.29131C11.5484 2.29131 14.4516 5.19453 14.4516 8.74292Z" fill="white"/>
</svg>
