<svg width="25" height="25" viewBox="0 0 25 25" fill="none" xmlns="http://www.w3.org/2000/svg">
<path d="M12.5 0C5.59476 0 0 5.59476 0 12.5C0 19.4052 5.59476 25 12.5 25C19.4052 25 25 19.4052 25 12.5C25 5.59476 19.4052 0 12.5 0ZM12.5 22.5806C6.90524 22.5806 2.41935 18.0948 2.41935 12.5C2.41935 6.95565 6.90524 2.41935 12.5 2.41935C18.0444 2.41935 22.5806 6.95565 22.5806 12.5C22.5806 18.0948 18.0444 22.5806 12.5 22.5806ZM17.3387 8.46774C17.3387 8.06452 16.9355 7.66129 16.5323 7.66129H14.1129C13.6593 7.66129 13.3065 8.06452 13.3065 8.46774V16.5323C13.3065 16.9859 13.6593 17.3387 14.1129 17.3387H16.5323C16.9355 17.3387 17.3387 16.9859 17.3387 16.5323V8.46774ZM11.6935 8.46774C11.6935 8.06452 11.2903 7.66129 10.8871 7.66129H8.46774C8.01411 7.66129 7.66129 8.06452 7.66129 8.46774V16.5323C7.66129 16.9859 8.01411 17.3387 8.46774 17.3387H10.8871C11.2903 17.3387 11.6935 16.9859 11.6935 16.5323V8.46774Z" fill="black"/>
</svg>
