<svg width="25" height="25" viewBox="0 0 25 25" fill="none" xmlns="http://www.w3.org/2000/svg">
<circle cx="12.4993" cy="12.5" r="11.2903" fill="#7CB9C1"/>
<path d="M18.2964 11.5927L9.4254 6.1996C8.61895 5.79637 7.66129 6.35081 7.66129 7.25806V17.7419C7.66129 18.6996 8.61895 19.254 9.4254 18.8004L18.2964 13.7097C19.1532 13.256 19.1532 12.0968 18.2964 11.5927ZM25 12.5C25 5.59476 19.4052 0 12.5 0C5.59476 0 0 5.59476 0 12.5C0 19.4052 5.59476 25 12.5 25C19.4052 25 25 19.4052 25 12.5ZM2.41935 12.5C2.41935 6.95565 6.90524 2.41935 12.5 2.41935C18.0444 2.41935 22.5806 6.95565 22.5806 12.5C22.5806 18.0948 18.0444 22.5806 12.5 22.5806C6.90524 22.5806 2.41935 18.0948 2.41935 12.5Z" fill="black"/>
</svg>
