<svg width="16" height="16" viewBox="0 0 16 16" fill="none" xmlns="http://www.w3.org/2000/svg">
<path d="M12.129 7.48399C12.129 7.29044 11.9355 7.0969 11.7419 7.0969H8.90323V4.25819C8.90323 4.06464 8.70968 3.87109 8.51613 3.87109H7.48387C7.25806 3.87109 7.09677 4.06464 7.09677 4.25819V7.0969H4.25806C4.03226 7.0969 3.87097 7.29044 3.87097 7.48399V8.51625C3.87097 8.74206 4.03226 8.90335 4.25806 8.90335H7.09677V11.7421C7.09677 11.9679 7.25806 12.1292 7.48387 12.1292H8.51613C8.70968 12.1292 8.90323 11.9679 8.90323 11.7421V8.90335H11.7419C11.9355 8.90335 12.129 8.74206 12.129 8.51625V7.48399ZM16 8.00012C16 3.58077 12.4194 0.00012207 8 0.00012207C3.58065 0.00012207 0 3.58077 0 8.00012C0 12.4195 3.58065 16.0001 8 16.0001C12.4194 16.0001 16 12.4195 16 8.00012ZM14.4516 8.00012C14.4516 11.5808 11.5484 14.4517 8 14.4517C4.41935 14.4517 1.54839 11.5808 1.54839 8.00012C1.54839 4.45174 4.41935 1.54851 8 1.54851C11.5484 1.54851 14.4516 4.45174 14.4516 8.00012Z" fill="white"/>
</svg>
