<svg width="14" height="15" viewBox="0 0 14 15" fill="none" xmlns="http://www.w3.org/2000/svg">
<path d="M13.5312 3.80542L10.9375 1.21167C10.6562 0.93042 10.2812 0.74292 9.875 0.74292H1.5C0.65625 0.74292 0 1.43042 0 2.24292V13.2429C0 14.0867 0.65625 14.7429 1.5 14.7429H12.5C13.3125 14.7429 14 14.0867 14 13.2429V4.86792C14 4.46167 13.8125 4.08667 13.5312 3.80542ZM8.5 2.24292V4.74292H4.5V2.24292H8.5ZM12.3125 13.2429H1.6875C1.5625 13.2429 1.5 13.1804 1.5 13.0554V2.43042C1.5 2.33667 1.5625 2.24292 1.6875 2.24292H3V5.49292C3 5.93042 3.3125 6.24292 3.75 6.24292H9.25C9.65625 6.24292 10 5.93042 10 5.49292V2.36792L12.4375 4.83667C12.4688 4.86792 12.5 4.89917 12.5 4.96167V13.0554C12.5 13.1804 12.4062 13.2429 12.3125 13.2429ZM7 6.99292C5.46875 6.99292 4.25 8.24292 4.25 9.74292C4.25 11.2742 5.46875 12.4929 7 12.4929C8.5 12.4929 9.75 11.2742 9.75 9.74292C9.75 8.24292 8.5 6.99292 7 6.99292ZM7 10.9929C6.28125 10.9929 5.75 10.4617 5.75 9.74292C5.75 9.05542 6.28125 8.49292 7 8.49292C7.6875 8.49292 8.25 9.05542 8.25 9.74292C8.25 10.4617 7.6875 10.9929 7 10.9929Z" fill="white"/>
</svg>
