<svg width="25" height="25" viewBox="0 0 25 25" fill="none" xmlns="http://www.w3.org/2000/svg">
<path d="M20.9997 4.16663H3.99967C3.15592 4.16663 2.49967 4.85413 2.49967 5.66663V15.6666C2.49967 16.5104 3.15592 17.1666 3.99967 17.1666H11.7497V18.6666H5.99967C5.71842 18.6666 5.49967 18.9166 5.49967 19.1666V19.6666C5.49967 19.9479 5.71842 20.1666 5.99967 20.1666H18.9997C19.2497 20.1666 19.4997 19.9479 19.4997 19.6666V19.1666C19.4997 18.9166 19.2497 18.6666 18.9997 18.6666H13.2497V17.1666H20.9997C21.8122 17.1666 22.4997 16.5104 22.4997 15.6666V5.66663C22.4997 4.85413 21.8122 4.16663 20.9997 4.16663ZM20.9997 15.6666H3.99967V5.66663H20.9997V15.6666Z" fill="black"/>
</svg>
