<svg width="20" height="16" viewBox="0 0 20 16" fill="none" xmlns="http://www.w3.org/2000/svg">
<path d="M3.25 8.5H9.25V10H10.75V8.5H16.75V10H18.25V8.21875C18.25 7.5625 17.6875 7 17.0312 7H10.75V5H12C12.5312 5 13 4.5625 13 4V1C13 0.46875 12.5312 0 12 0H8C7.4375 0 7 0.46875 7 1V4C7 4.28125 7.09375 4.53125 7.28125 4.71875C7.46875 4.90625 7.71875 5 8 5H9.25V7H2.9375C2.28125 7 1.75 7.5625 1.75 8.21875V10H3.25V8.5ZM8.5 3.5V1.5H11.5V3.5H8.5ZM19 11H16C15.4375 11 15 11.4688 15 12V15C15 15.5625 15.4375 16 16 16H19C19.5312 16 20 15.5625 20 15V12C20 11.4688 19.5312 11 19 11ZM18.5 14.5H16.5V12.5H18.5V14.5ZM11.5 11H8.5C7.9375 11 7.5 11.4688 7.5 12V15C7.5 15.5625 7.9375 16 8.5 16H11.5C12.0312 16 12.5 15.5625 12.5 15V12C12.5 11.4688 12.0312 11 11.5 11ZM11 14.5H9V12.5H11V14.5ZM4 11H1C0.4375 11 0 11.4688 0 12V15C0 15.5625 0.4375 16 1 16H4C4.53125 16 5 15.5625 5 15V12C5 11.4688 4.53125 11 4 11ZM3.5 14.5H1.5V12.5H3.5V14.5Z" fill="white"/>
</svg>
