<svg width="14" height="15" viewBox="0 0 14 15" fill="none" xmlns="http://www.w3.org/2000/svg">
<path d="M10.1562 5.80518C10.3125 5.68018 10.3125 5.43018 10.1562 5.27393L9.46875 4.58643C9.3125 4.43018 9.0625 4.43018 8.9375 4.58643L7 6.52393L5.03125 4.58643C4.90625 4.43018 4.65625 4.43018 4.5 4.58643L3.8125 5.27393C3.65625 5.43018 3.65625 5.68018 3.8125 5.80518L5.75 7.74268L3.8125 9.71143C3.65625 9.83643 3.65625 10.0864 3.8125 10.2427L4.5 10.9302C4.65625 11.0864 4.90625 11.0864 5.03125 10.9302L7 8.99268L8.9375 10.9302C9.0625 11.0864 9.3125 11.0864 9.46875 10.9302L10.1562 10.2427C10.3125 10.0864 10.3125 9.83643 10.1562 9.71143L8.21875 7.74268L10.1562 5.80518ZM14 2.24268C14 1.43018 13.3125 0.742676 12.5 0.742676H1.5C0.65625 0.742676 0 1.43018 0 2.24268V13.2427C0 14.0864 0.65625 14.7427 1.5 14.7427H12.5C13.3125 14.7427 14 14.0864 14 13.2427V2.24268ZM12.5 13.0552C12.5 13.1802 12.4062 13.2427 12.3125 13.2427H1.6875C1.5625 13.2427 1.5 13.1802 1.5 13.0552V2.43018C1.5 2.33643 1.5625 2.24268 1.6875 2.24268H12.3125C12.4062 2.24268 12.5 2.33643 12.5 2.43018V13.0552Z" fill="white"/>
</svg>
