<svg width="19" height="17" viewBox="0 0 19 17" fill="none" xmlns="http://www.w3.org/2000/svg">
<path d="M16.5 5.16675H13.5V2.16675C13.5 1.073 12.5938 0.166748 11.5 0.166748H2.5C1.375 0.166748 0.5 1.073 0.5 2.16675V7.16675C0.5 8.29175 1.375 9.16675 2.5 9.16675H3.5V10.7917C3.5 11.0417 3.65625 11.1667 3.875 11.1667C3.9375 11.1667 4 11.1667 4.09375 11.1042L6.5 9.7605V12.1667C6.5 13.2917 7.375 14.1667 8.5 14.1667H11.5L14.875 16.1042C14.9688 16.1667 15.0312 16.1667 15.125 16.1667C15.3125 16.1667 15.5 16.0417 15.5 15.7917V14.1667H16.5C17.5938 14.1667 18.5 13.2917 18.5 12.1667V7.16675C18.5 6.073 17.5938 5.16675 16.5 5.16675ZM3.5 7.66675H2.5C2.21875 7.66675 2 7.448 2 7.16675V2.16675C2 1.91675 2.21875 1.66675 2.5 1.66675H11.5C11.75 1.66675 12 1.91675 12 2.16675V7.16675C12 7.448 11.75 7.66675 11.5 7.66675H7.09375L6.75 7.8855L5 8.8855V7.66675H3.5ZM17 12.1667C17 12.448 16.75 12.6667 16.5 12.6667H14V13.8855L12.2188 12.8855L11.875 12.6667H8.5C8.21875 12.6667 8 12.448 8 12.1667V9.16675H11.5C12.5938 9.16675 13.5 8.29175 13.5 7.16675V6.66675H16.5C16.75 6.66675 17 6.91675 17 7.16675V12.1667Z" fill="black"/>
</svg>
