<svg width="17" height="17" viewBox="0 0 17 17" fill="none" xmlns="http://www.w3.org/2000/svg">
<path d="M12.4998 10.6667C11.2186 10.6667 10.9998 10.6355 10.2186 10.8855C9.68734 11.073 9.09359 11.1667 8.49984 11.1667C7.87484 11.1667 7.28109 11.073 6.74984 10.8855C5.96859 10.6355 5.74984 10.6667 4.49984 10.6667C2.28109 10.6667 0.499836 12.4792 0.499836 14.6667V15.1667C0.499836 15.7292 0.937336 16.1667 1.49984 16.1667H15.4998C16.0311 16.1667 16.4998 15.7292 16.4998 15.1667V14.6667C16.4998 12.4792 14.6873 10.6667 12.4998 10.6667ZM14.9998 14.6667H1.99984C1.99984 14.0105 2.24984 13.3855 2.71859 12.9167C3.18734 12.448 3.81234 12.1667 4.49984 12.1667C5.78109 12.1667 5.78109 12.1355 6.24984 12.323C6.96859 12.5417 7.71859 12.6667 8.49984 12.6667C9.24984 12.6667 9.99984 12.5417 10.7186 12.323C11.2186 12.1355 11.1873 12.1667 12.4998 12.1667C13.8748 12.1667 14.9998 13.2917 14.9998 14.6667ZM8.49984 10.1667C11.2498 10.1667 13.4998 7.948 13.4998 5.16675C13.4998 2.41675 11.2498 0.166748 8.49984 0.166748C5.71859 0.166748 3.49984 2.41675 3.49984 5.16675C3.49984 7.948 5.71859 10.1667 8.49984 10.1667ZM8.49984 1.66675C10.4061 1.66675 11.9998 3.2605 11.9998 5.16675C11.9998 7.10425 10.4061 8.66675 8.49984 8.66675C6.56234 8.66675 4.99984 7.10425 4.99984 5.16675C4.99984 3.2605 6.56234 1.66675 8.49984 1.66675Z" fill="black"/>
</svg>
